<?xml version="1.0" encoding="UTF-8"?>
<svg width="64" height="64" viewBox="0 0 64 64" xmlns="http://www.w3.org/2000/svg">
  <defs>
    <linearGradient id="gradient" x1="0%" y1="0%" x2="100%" y2="100%">
      <stop offset="0%" style="stop-color:#4a9eff;stop-opacity:1" />
      <stop offset="100%" style="stop-color:#2563eb;stop-opacity:1" />
    </linearGradient>
  </defs>
  
  <!-- Background circle -->
  <circle cx="32" cy="32" r="30" fill="url(#gradient)" stroke="#1e40af" stroke-width="2" fill-opacity="0.95"/>
  
  <!-- Git branch representation -->
  <!-- Main branch line -->
  <path d="M 12 32 L 52 32" stroke="white" stroke-width="3" stroke-linecap="round"/>
  
  <!-- Branch 1 -->
  <path d="M 20 32 Q 25 20 32 20 L 44 20" stroke="white" stroke-width="2.5" stroke-linecap="round" fill="none"/>
  
  <!-- Branch 2 -->
  <path d="M 28 32 Q 33 44 40 44 L 50 44" stroke="white" stroke-width="2.5" stroke-linecap="round" fill="none"/>
  
  <!-- Commit dots -->
  <circle cx="16" cy="32" r="3" fill="white"/>
  <circle cx="24" cy="32" r="3" fill="white"/>
  <circle cx="32" cy="32" r="3" fill="white"/>
  <circle cx="40" cy="32" r="3" fill="white"/>
  <circle cx="48" cy="32" r="3" fill="white"/>
  
  <!-- Branch commit dots -->
  <circle cx="32" cy="20" r="2.5" fill="white"/>
  <circle cx="40" cy="20" r="2.5" fill="white"/>
  <circle cx="40" cy="44" r="2.5" fill="white"/>
  <circle cx="46" cy="44" r="2.5" fill="white"/>
  
  <!-- Small terminal/code icon in corner -->
  <rect x="46" y="10" width="12" height="8" rx="1" fill="#1f2937" opacity="0.8"/>
  <rect x="48" y="12" width="8" height="1" fill="#10b981"/>
  <rect x="48" y="14" width="6" height="1" fill="#6b7280"/>
</svg>